<?xml version="1.0" encoding="UTF-8"?>
<svg width="57px" height="37px" viewBox="0 0 57 37" version="1.1" xmlns="http://www.w3.org/2000/svg" xmlns:xlink="http://www.w3.org/1999/xlink">
    <!-- Generator: Sketch 45.2 (43514) - http://www.bohemiancoding.com/sketch -->
    <title>Group 3</title>
    <desc>Created with Sketch.</desc>
    <defs>
        <path d="M45.4811338,0.62367019 C41.5400388,-0.485308874 36.9535954,0.069569228 33.1442362,0.85836653 C32.040165,1.08684575 30.9392304,1.3526277 29.8155557,1.47075301 C28.7154052,1.5865469 27.6301534,1.48163297 26.5370602,1.34252487 C25.942681,1.26636513 25.3286982,1.18865112 24.6025832,1.13735986 C22.2485905,0.964834738 20.1706157,1.6619295 19.008518,2.36213282 C18.6431081,2.58284063 18.4619714,3.00871346 18.5568525,3.42215205 C18.6517337,3.83559063 19.0022449,4.14178387 19.4303861,4.1829723 C20.0428006,4.24203496 21.4879733,4.47439988 21.6706783,5.34945974 C21.8416211,6.16234839 21.6455858,6.45688453 20.056131,8.51630605 C19.1277075,9.72087336 17.8558301,11.3699649 16.0860228,13.9415218 C13.714779,17.3881386 12.2272627,21.2303197 11.3153061,24.3256691 C11.1435792,24.9077471 10.8706979,25.4509681 10.4903893,25.9258008 C9.60587775,27.0293399 7.8744934,28.948099 5.60440387,30.3042087 C2.21377618,32.329436 0.828982359,34.7276907 0.487096682,35.4123512 C0.324779399,35.7348644 0.376532735,36.1164402 0.619616589,36.3845536 C0.789775286,36.5710673 1.02501772,36.6720955 1.26888572,36.6720955 C1.37396068,36.6720955 1.48060391,36.6534441 1.58332645,36.6153642 C2.29297447,36.3464737 4.70969846,35.4543168 6.00353187,35.2452661 C7.64160338,34.9802613 8.93151609,34.2443095 9.77603645,33.6187116 C10.1806534,34.1020928 10.993024,34.690388 12.522884,34.5707084 C13.7994663,34.4619087 14.5177399,35.1869806 14.8361013,35.6260648 C15.0595816,35.9338123 15.4547889,36.0635947 15.820983,35.9439151 C16.1856088,35.8257898 16.4279085,35.4908424 16.425556,35.1108208 C16.4177146,34.2264353 16.2334414,32.0434484 14.6800572,30.8544239 C13.7077217,30.1114779 13.2152809,28.836968 13.7673165,28.2820899 C16.8474242,25.1836319 22.6704587,19.9138442 29.4321105,16.7275694 C31.7155304,15.6512302 33.9542543,14.7886046 36.4344937,14.0293386 C36.6258243,14.6269594 36.5544674,15.4748194 36.2212073,16.5169644 C36.1239737,16.8200491 36.1992513,17.1526651 36.4164585,17.3873614 C36.6305291,17.6197263 36.9559478,17.7223089 37.2735251,17.650812 C39.346011,17.1713165 40.6414127,15.6403503 41.7839068,14.2904577 C42.6786122,13.2335471 43.4509915,12.3204073 44.3833357,12.1074709 C47.455602,11.4072676 49.9781851,11.3831762 51.8185651,11.3668563 C54.0392537,11.3474278 55.6349816,11.3862848 56.0952726,10.0993406 C56.6371144,8.58314011 54.5426725,7.14387646 53.0433941,6.43823316 C52.6521075,6.25405093 52.2819927,6.07919439 52.0349881,5.93076061 C51.9338339,5.86936654 51.8475783,5.4800193 51.6923183,5.17926604 C51.3668996,4.54745106 50.8736746,3.59079147 49.3704754,2.36290996 C48.2115144,1.41713033 46.873769,1.01534885 45.4811338,0.62367019 Z M47.8406155,6.10794858 C47.9307917,6.22918245 47.9198137,6.51283862 47.7394612,6.67137522 C47.5418576,6.84467749 47.3764037,6.93016291 46.2707642,6.93016291 C46.1578479,6.93016291 46.0347377,6.92938577 45.9014336,6.92783149 C45.5415127,6.92394579 45.2521645,6.6768152 45.2576535,6.37683909 C45.2623583,6.1258228 45.4685875,5.91754923 45.7469577,5.85770943 C45.8128256,5.64710444 46.0268963,5.48235072 46.3013458,5.45437367 C46.7287029,5.41163096 47.3489588,5.44427085 47.8406155,6.10794858 Z" id="path-1"></path>
        <radialGradient cx="63.5289634%" cy="64.9360795%" fx="63.5289634%" fy="64.9360795%" r="53.0526409%" gradientTransform="translate(0.635290,0.649361),scale(0.670732,1.000000),rotate(-120.338983),translate(-0.635290,-0.649361)" id="radialGradient-3">
            <stop stop-color="#0E8FB9" offset="0%"></stop>
            <stop stop-color="#065683" stop-opacity="0" offset="100%"></stop>
        </radialGradient>
    </defs>
    <g id="Page-1" stroke="none" stroke-width="1" fill="none" fill-rule="evenodd">
        <g id="1280-Aventures-01" transform="translate(-688.000000, -4628.000000)">
            <g id="6-footer" transform="translate(0.000000, 4608.000000)">
                <g id="Group-3" transform="translate(688.000000, 20.000000)">
                    <mask id="mask-2" fill="white">
                        <use xlink:href="#path-1"></use>
                    </mask>
                    <use id="Mask" fill="#003D5F" fill-rule="nonzero" xlink:href="#path-1"></use>
                    <path d="M66,15 C54.6666667,7 41.6666667,6.33333333 27,13 C12.3333333,19.6666667 7,31 11,47 L-16,41 L14,-8 L62,-2 L66,15 Z" id="Path-2" fill="url(#radialGradient-3)" mask="url(#mask-2)"></path>
                </g>
            </g>
        </g>
    </g>
</svg>