<?xml version="1.0" encoding="UTF-8"?>
<svg width="31px" height="21px" viewBox="0 0 31 21" version="1.1" xmlns="http://www.w3.org/2000/svg" xmlns:xlink="http://www.w3.org/1999/xlink">
    <!-- Generator: Sketch 45.2 (43514) - http://www.bohemiancoding.com/sketch -->
    <title>noun_1042992_cc</title>
    <desc>Created with Sketch.</desc>
    <defs></defs>
    <g id="Page-1" stroke="none" stroke-width="1" fill="none" fill-rule="evenodd">
        <g id="1280-Aventures-01" transform="translate(-1060.000000, -1144.000000)" fill-rule="nonzero" fill="#003D5F">
            <g id="2-about" transform="translate(88.000000, 800.000000)">
                <g id="noun_1042992_cc" transform="translate(972.000000, 344.000000)">
                    <g id="Group" transform="translate(0.000000, 0.257185)">
                        <path d="M3.088267,0 C1.39517617,0 0,1.36841603 0,3.02903276 L0,17.1645358 C0,18.8251525 1.39517617,20.1935685 3.088267,20.1935685 L27.7944058,20.1935685 C29.4874968,20.1935685 30.882673,18.8251525 30.882673,17.1645358 L30.882673,3.02903276 C30.882673,1.36841603 29.4874968,0 27.7944058,0 L3.08826735,0 L3.088267,0 Z M3.088267,2.01935517 L27.7944058,2.01935517 C28.3825148,2.01935517 28.8238282,2.45220395 28.8238282,3.02903276 L28.8238282,17.1645358 C28.8238282,17.7413646 28.3825148,18.1742134 27.7944058,18.1742134 L3.08826735,18.1742134 C2.50015799,18.1742134 2.05884496,17.7413646 2.05884496,17.1645358 L2.05884496,3.02903276 C2.05884496,2.45220395 2.50015799,2.01935517 3.08826735,2.01935517 L3.088267,2.01935517 Z M26.1323001,4.01767539 C25.8880769,4.02974384 25.6562072,4.12668047 25.4782051,4.29112974 L16.2026965,12.494777 C15.7467996,12.8975037 15.1126755,12.8969988 14.6585629,12.494777 L5.40446739,4.29112974 C5.20040073,4.10819506 4.92989646,4.01344546 4.65384689,4.0282097 C4.23450192,4.04712194 3.86886188,4.31386202 3.7297681,4.70233952 C3.59067431,5.09081702 3.70598755,5.52321912 4.0211982,5.79514547 L8.97525915,10.1809325 L4.04261019,14.3774218 C3.76334837,14.6137432 3.63424536,14.9784914 3.70413447,15.3336999 C3.77402358,15.6889084 4.03223448,15.9803458 4.38109869,16.0977757 C4.7299629,16.2152056 5.1162175,16.1406992 5.39376139,15.9024388 L10.5193927,11.5376699 L13.2859997,13.9882584 C14.4994142,15.0628919 16.3616393,15.060536 17.5752597,13.9882584 L20.3525384,11.5271693 L25.4889111,15.9024388 C25.7664549,16.1406992 26.1527096,16.2152056 26.5015738,16.0977757 C26.850438,15.9803458 27.1086489,15.6889084 27.178538,15.3336999 C27.2484271,14.9784914 27.1193241,14.6137432 26.8400623,14.3774218 L21.8966723,10.1704318 L26.8507686,5.79514547 C27.1864892,5.51486507 27.3029956,5.05603163 27.1405131,4.65405433 C26.9780305,4.25207703 26.5726276,3.99618868 26.1323004,4.01767539 L26.1323001,4.01767539 Z" id="Shape"></path>
                    </g>
                </g>
            </g>
        </g>
    </g>
</svg>